<svg xmlns="http://www.w3.org/2000/svg" xmlns:xlink="http://www.w3.org/1999/xlink" width="500" zoomAndPan="magnify" viewBox="0 0 375 374.999991" height="500" preserveAspectRatio="xMidYMid meet" version="1.0"><defs><g/><clipPath id="61973841f3"><path d="M 24.429688 18.023438 L 350.679688 18.023438 L 350.679688 344.273438 L 24.429688 344.273438 Z M 24.429688 18.023438 " clip-rule="nonzero"/></clipPath><clipPath id="e124fcf764"><path d="M 59.988281 53.453125 L 315.011719 53.453125 L 315.011719 308.476562 L 59.988281 308.476562 Z M 59.988281 53.453125 " clip-rule="nonzero"/></clipPath><clipPath id="6a42b1b1a2"><path d="M 187.5 53.453125 C 117.078125 53.453125 59.988281 110.542969 59.988281 180.964844 C 59.988281 251.386719 117.078125 308.476562 187.5 308.476562 C 257.921875 308.476562 315.011719 251.386719 315.011719 180.964844 C 315.011719 110.542969 257.921875 53.453125 187.5 53.453125 " clip-rule="nonzero"/></clipPath><clipPath id="97d8b5c57d"><path d="M 109.667969 103.132812 L 265.332031 103.132812 L 265.332031 258.796875 L 109.667969 258.796875 Z M 109.667969 103.132812 " clip-rule="nonzero"/></clipPath><clipPath id="b5bafb322f"><path d="M 187.5 103.132812 C 144.515625 103.132812 109.667969 137.980469 109.667969 180.964844 C 109.667969 223.949219 144.515625 258.796875 187.5 258.796875 C 230.484375 258.796875 265.332031 223.949219 265.332031 180.964844 C 265.332031 137.980469 230.484375 103.132812 187.5 103.132812 " clip-rule="nonzero"/></clipPath></defs><g clip-path="url(#61973841f3)"><path fill="#0b5686" d="M 275.699219 237.660156 C 270.925781 245.183594 265.253906 251.980469 258.867188 257.953125 L 265.109375 283.441406 L 242.53125 270.46875 C 235.070312 275.109375 227.042969 278.789062 218.640625 281.445312 L 213.257812 307.121094 L 198.53125 285.625 C 189.925781 286.542969 181.101562 286.390625 172.246094 285.050781 L 156.304688 305.855469 L 152.328125 280.035156 C 143.875 277.011719 136.027344 272.976562 128.875 268.101562 L 105.554688 279.882812 L 113.097656 254.898438 C 106.917969 248.585938 101.554688 241.527344 97.144531 233.902344 L 71.035156 234.355469 L 88.621094 215.144531 C 85.800781 206.851562 83.992188 198.167969 83.308594 189.277344 L 59.605469 178.285156 L 83.75 168.628906 C 84.324219 163.882812 85.207031 159.101562 86.457031 154.339844 C 87.480469 150.453125 88.730469 146.6875 90.140625 143.03125 L 73.507812 122.78125 L 99.40625 124.621094 C 104.1875 117.105469 109.859375 110.300781 116.242188 104.347656 L 110 78.847656 L 132.589844 91.8125 C 140.035156 87.191406 148.070312 83.5 156.472656 80.855469 L 161.855469 55.167969 L 176.578125 76.671875 C 185.179688 75.753906 194 75.910156 202.871094 77.238281 L 218.804688 56.445312 L 222.785156 82.265625 C 231.230469 85.285156 239.082031 89.328125 246.226562 94.199219 L 269.554688 82.40625 L 262.003906 107.398438 C 268.195312 113.714844 273.558594 120.765625 277.96875 128.382812 L 304.078125 127.9375 L 286.484375 147.15625 C 289.308594 155.441406 291.109375 164.121094 291.800781 173.015625 L 315.515625 184.007812 L 291.351562 193.644531 C 290.78125 198.398438 289.902344 203.191406 288.648438 207.960938 C 287.625 211.84375 286.375 215.605469 284.96875 219.261719 L 301.609375 239.5 Z M 297.203125 267.023438 L 323.441406 271.574219 C 330.28125 261.207031 335.980469 250.027344 340.363281 238.167969 L 321.21875 219.542969 C 317.640625 216.0625 318.636719 212.09375 323.425781 210.71875 L 349.035156 203.371094 C 349.863281 197.246094 350.386719 191 350.523438 184.660156 C 350.65625 178.324219 350.394531 172.078125 349.828125 165.902344 L 324.558594 157.472656 C 319.832031 155.886719 319.011719 151.878906 322.734375 148.554688 L 342.664062 130.765625 C 338.78125 118.742188 333.570312 107.324219 327.183594 96.671875 L 300.765625 100.101562 C 295.828125 100.730469 293.355469 97.476562 295.273438 92.851562 L 305.53125 68.148438 C 296.945312 59.105469 287.328125 51.058594 276.878906 44.167969 L 254.550781 58.769531 C 250.371094 61.492188 246.742188 59.632812 246.46875 54.644531 L 245.054688 27.894531 C 233.5625 23.535156 221.457031 20.441406 208.882812 18.789062 L 195.070312 41.683594 C 192.480469 45.957031 188.40625 45.871094 186.007812 41.480469 L 173.183594 18.019531 C 160.542969 19.128906 148.316406 21.695312 136.652344 25.550781 L 134.09375 52.21875 C 133.605469 57.195312 129.902344 58.894531 125.855469 55.980469 L 104.167969 40.441406 C 93.433594 46.882812 83.46875 54.492188 74.507812 63.167969 L 83.710938 88.292969 C 85.421875 92.988281 82.820312 96.132812 77.910156 95.28125 L 51.671875 90.726562 C 44.832031 101.085938 39.132812 112.277344 34.75 124.121094 L 53.898438 142.753906 C 57.464844 146.246094 56.476562 150.210938 51.6875 151.585938 L 26.082031 158.917969 C 25.246094 165.050781 24.71875 171.300781 24.589844 177.628906 C 24.449219 183.964844 24.710938 190.230469 25.277344 196.394531 L 50.550781 204.824219 C 55.277344 206.402344 56.097656 210.414062 52.371094 213.75 L 32.457031 231.53125 C 36.324219 243.550781 41.542969 254.972656 47.933594 265.621094 L 74.339844 262.21875 C 79.28125 261.566406 81.75 264.816406 79.832031 269.441406 L 69.578125 294.148438 C 78.152344 303.191406 87.789062 311.242188 98.238281 318.140625 L 120.5625 303.53125 C 124.734375 300.800781 128.363281 302.660156 128.632812 307.65625 L 130.054688 334.410156 C 141.546875 338.753906 153.652344 341.851562 166.230469 343.503906 L 180.046875 320.625 C 182.632812 316.332031 186.699219 316.433594 189.101562 320.816406 L 201.925781 344.277344 C 214.558594 343.167969 226.792969 340.597656 238.453125 336.742188 L 241.015625 310.089844 C 241.492188 305.101562 245.203125 303.414062 249.265625 306.308594 L 270.945312 321.855469 C 281.675781 315.417969 291.636719 307.792969 300.601562 299.128906 L 291.398438 274.011719 C 289.683594 269.308594 292.289062 266.164062 297.203125 267.023438 " fill-opacity="1" fill-rule="nonzero"/></g><path fill="#0b5686" d="M 169.324219 250.558594 C 131.164062 240.4375 108.394531 201.148438 118.46875 162.828125 C 128.539062 124.488281 167.640625 101.609375 205.796875 111.726562 C 243.953125 121.855469 266.71875 161.128906 256.640625 199.46875 C 246.570312 237.796875 207.476562 260.679688 169.324219 250.558594 Z M 207.125 106.65625 C 166.183594 95.796875 124.226562 120.335938 113.414062 161.492188 C 102.609375 202.613281 127.042969 244.765625 167.984375 255.632812 C 208.933594 266.488281 250.882812 241.953125 261.695312 200.8125 C 272.503906 159.671875 248.070312 117.519531 207.125 106.65625 " fill-opacity="1" fill-rule="nonzero"/><path fill="#0b5686" d="M 178.363281 216.125 C 159.144531 211.027344 147.664062 191.238281 152.742188 171.914062 C 157.816406 152.59375 177.515625 141.082031 196.746094 146.179688 C 215.96875 151.277344 227.449219 171.0625 222.371094 190.386719 C 217.296875 209.703125 197.597656 221.226562 178.363281 216.125 Z M 203.578125 120.148438 C 170.050781 111.257812 135.703125 131.351562 126.847656 165.050781 C 118 198.730469 137.996094 233.242188 171.53125 242.140625 C 205.0625 251.039062 239.410156 230.9375 248.261719 197.246094 C 257.113281 163.558594 237.117188 129.046875 203.578125 120.148438 " fill-opacity="1" fill-rule="nonzero"/><g clip-path="url(#e124fcf764)"><g clip-path="url(#6a42b1b1a2)"><path fill="#ffffff" d="M 59.988281 53.453125 L 315.011719 53.453125 L 315.011719 308.476562 L 59.988281 308.476562 Z M 59.988281 53.453125 " fill-opacity="1" fill-rule="nonzero"/></g></g><g clip-path="url(#97d8b5c57d)"><g clip-path="url(#b5bafb322f)"><path fill="#0b5686" d="M 109.667969 103.132812 L 265.332031 103.132812 L 265.332031 258.796875 L 109.667969 258.796875 Z M 109.667969 103.132812 " fill-opacity="1" fill-rule="nonzero"/></g></g><g fill="#0b5686" fill-opacity="1"><g transform="translate(120.350386, 132.50079)"><g><path d="M -13.84375 -14.171875 L -11.21875 -17.15625 C -9.90625 -18.65625 -8.628906 -19.484375 -7.390625 -19.640625 C -6.160156 -19.804688 -4.847656 -19.28125 -3.453125 -18.0625 C -1.546875 -16.382812 -0.925781 -14.757812 -1.59375 -13.1875 L 7.6875 -8.78125 L 5.9375 -6.78125 L -2.71875 -10.953125 L -4.140625 -9.34375 L 2.828125 -3.234375 L 1.015625 -1.15625 Z M -4.9375 -11.421875 C -4.144531 -12.316406 -3.757812 -13.113281 -3.78125 -13.8125 C -3.800781 -14.507812 -4.273438 -15.265625 -5.203125 -16.078125 C -5.816406 -16.609375 -6.359375 -16.957031 -6.828125 -17.125 C -7.296875 -17.289062 -7.757812 -17.273438 -8.21875 -17.078125 C -8.675781 -16.878906 -9.175781 -16.46875 -9.71875 -15.84375 L -10.53125 -14.9375 L -5.625 -10.640625 Z M -4.9375 -11.421875 "/></g></g></g><g fill="#0b5686" fill-opacity="1"><g transform="translate(130.115601, 121.738433)"><g><path d="M -11.5 -16.140625 L -5.625 -21.046875 L -4.3125 -19.46875 L -8.0625 -16.328125 L -3.859375 -11.3125 L -0.8125 -13.859375 L 0.421875 -12.375 L -2.625 -9.828125 L 2.03125 -4.265625 L 5.8125 -7.4375 L 7.078125 -5.921875 L 1.171875 -0.984375 Z M -11.5 -16.140625 "/></g></g></g><g fill="#0b5686" fill-opacity="1"><g transform="translate(139.264364, 114.188534)"><g><path d="M -8.953125 -17.671875 L -4.765625 -20.21875 C -3.304688 -21.113281 -2.007812 -21.363281 -0.875 -20.96875 C 0.257812 -20.582031 1.296875 -19.625 2.234375 -18.09375 C 3.066406 -16.71875 3.363281 -15.429688 3.125 -14.234375 C 2.882812 -13.035156 2.085938 -12.023438 0.734375 -11.203125 L -1.109375 -10.078125 L 3.671875 -2.234375 L 1.3125 -0.796875 Z M -1.046875 -12.421875 C -0.347656 -12.847656 0.132812 -13.253906 0.40625 -13.640625 C 0.6875 -14.023438 0.800781 -14.453125 0.75 -14.921875 C 0.695312 -15.398438 0.453125 -16 0.015625 -16.71875 C -0.503906 -17.570312 -0.945312 -18.160156 -1.3125 -18.484375 C -1.6875 -18.816406 -2.109375 -18.953125 -2.578125 -18.890625 C -3.046875 -18.828125 -3.675781 -18.554688 -4.46875 -18.078125 L -5.5625 -17.40625 L -2.125 -11.765625 Z M -1.046875 -12.421875 "/></g></g></g><g fill="#0b5686" fill-opacity="1"><g transform="translate(150.891831, 107.265975)"><g><path d="M -3.125 -20.046875 L -0.671875 -21.046875 L 10.6875 -4.34375 L 8.265625 -3.359375 L 5.546875 -7.625 L 1.828125 -6.109375 L 2.828125 -1.15625 L 0.4375 -0.171875 Z M 4.46875 -9.328125 L -0.40625 -16.9375 L 1.40625 -8.078125 Z M 4.46875 -9.328125 "/></g></g></g><g fill="#0b5686" fill-opacity="1"><g transform="translate(163.698046, 102.183731)"><g><path d="M -2.828125 -19.59375 L 1.046875 -20.46875 C 2.992188 -20.90625 4.515625 -20.828125 5.609375 -20.234375 C 6.703125 -19.640625 7.453125 -18.4375 7.859375 -16.625 C 8.410156 -14.15625 7.953125 -12.484375 6.484375 -11.609375 L 11.390625 -2.5625 L 8.796875 -1.96875 L 4.25 -10.453125 L 2.15625 -9.984375 L 4.1875 -0.9375 L 1.5 -0.328125 Z M 2.75 -12.140625 C 3.90625 -12.398438 4.679688 -12.8125 5.078125 -13.375 C 5.472656 -13.945312 5.539062 -14.832031 5.28125 -16.03125 C 5.09375 -16.832031 4.859375 -17.4375 4.578125 -17.84375 C 4.296875 -18.257812 3.910156 -18.523438 3.421875 -18.640625 C 2.929688 -18.753906 2.285156 -18.71875 1.484375 -18.53125 L 0.296875 -18.265625 L 1.71875 -11.90625 Z M 2.75 -12.140625 "/></g></g></g><g fill="#0b5686" fill-opacity="1"><g transform="translate(177.816081, 99.190383)"><g><path d="M 3.5625 -19.984375 L 6.203125 -20.125 L 11.515625 -0.640625 L 8.90625 -0.5 L 7.71875 -5.40625 L 3.71875 -5.1875 L 3.046875 -0.171875 L 0.46875 -0.03125 Z M 7.25 -7.359375 L 5.109375 -16.140625 L 3.96875 -7.171875 Z M 7.25 -7.359375 "/></g></g></g><g fill="#0b5686" fill-opacity="1"><g transform="translate(191.583552, 98.549109)"><g><path d="M 6.421875 0.921875 C 4.484375 0.710938 3.179688 -0.0078125 2.515625 -1.25 C 1.859375 -2.5 1.640625 -4.144531 1.859375 -6.1875 L 2.625 -13.109375 C 2.863281 -15.253906 3.429688 -16.835938 4.328125 -17.859375 C 5.222656 -18.890625 6.65625 -19.300781 8.625 -19.09375 C 10.382812 -18.894531 11.59375 -18.273438 12.25 -17.234375 C 12.914062 -16.191406 13.144531 -14.75 12.9375 -12.90625 L 12.78125 -11.34375 L 10.1875 -11.625 L 10.328125 -13.015625 C 10.429688 -13.910156 10.46875 -14.609375 10.4375 -15.109375 C 10.414062 -15.609375 10.253906 -16.019531 9.953125 -16.34375 C 9.648438 -16.664062 9.140625 -16.863281 8.421875 -16.9375 C 7.671875 -17.019531 7.09375 -16.925781 6.6875 -16.65625 C 6.289062 -16.382812 6.003906 -15.972656 5.828125 -15.421875 C 5.660156 -14.878906 5.523438 -14.140625 5.421875 -13.203125 L 4.5625 -5.4375 C 4.457031 -4.425781 4.453125 -3.628906 4.546875 -3.046875 C 4.648438 -2.472656 4.867188 -2.039062 5.203125 -1.75 C 5.546875 -1.46875 6.046875 -1.289062 6.703125 -1.21875 C 7.390625 -1.144531 7.914062 -1.242188 8.28125 -1.515625 C 8.65625 -1.785156 8.914062 -2.179688 9.0625 -2.703125 C 9.207031 -3.222656 9.332031 -3.945312 9.4375 -4.875 L 9.59375 -6.328125 L 12.1875 -6.046875 L 12.03125 -4.59375 C 11.8125 -2.632812 11.273438 -1.171875 10.421875 -0.203125 C 9.566406 0.753906 8.234375 1.128906 6.421875 0.921875 Z M 6.421875 0.921875 "/></g></g></g><g fill="#0b5686" fill-opacity="1"><g transform="translate(206.087077, 100.501892)"><g><path d="M 6.390625 -18.765625 L 9.015625 -18.109375 L 4.265625 1.0625 L 1.640625 0.40625 Z M 6.390625 -18.765625 "/></g></g></g><g fill="#0b5686" fill-opacity="1"><g transform="translate(213.99549, 102.358263)"><g><path d="M 6.03125 2.640625 C 4.238281 1.929688 3.15625 0.910156 2.78125 -0.421875 C 2.414062 -1.753906 2.617188 -3.382812 3.390625 -5.3125 L 6.171875 -12.265625 C 6.929688 -14.171875 7.894531 -15.457031 9.0625 -16.125 C 10.238281 -16.789062 11.71875 -16.769531 13.5 -16.0625 C 15.28125 -15.351562 16.359375 -14.347656 16.734375 -13.046875 C 17.117188 -11.742188 16.9375 -10.148438 16.1875 -8.265625 L 13.390625 -1.296875 C 12.628906 0.609375 11.65625 1.914062 10.46875 2.625 C 9.28125 3.34375 7.800781 3.347656 6.03125 2.640625 Z M 6.828125 0.625 C 7.773438 1 8.523438 0.972656 9.078125 0.546875 C 9.640625 0.128906 10.144531 -0.644531 10.59375 -1.78125 L 13.8125 -9.8125 C 14.257812 -10.925781 14.421875 -11.816406 14.296875 -12.484375 C 14.179688 -13.160156 13.648438 -13.6875 12.703125 -14.0625 C 11.734375 -14.445312 10.976562 -14.4375 10.4375 -14.03125 C 9.894531 -13.625 9.398438 -12.863281 8.953125 -11.75 L 5.734375 -3.71875 C 5.285156 -2.582031 5.113281 -1.671875 5.21875 -0.984375 C 5.320312 -0.296875 5.859375 0.238281 6.828125 0.625 Z M 6.828125 0.625 "/></g></g></g><g fill="#0b5686" fill-opacity="1"><g transform="translate(227.728088, 108.014306)"><g><path d="M 11.65625 -16.015625 L 13.265625 -15.03125 L 11.15625 -0.90625 L 18.03125 -12.078125 L 19.984375 -10.875 L 9.625 5.9375 L 8.140625 5.015625 L 10.375 -9.453125 L 3.296875 2.03125 L 1.296875 0.796875 Z M 11.65625 -16.015625 "/></g></g></g><g fill="#0b5686" fill-opacity="1"><g transform="translate(240.135025, 115.972817)"><g><path d="M 14 -14 L 19.828125 -9.015625 L 18.5 -7.453125 L 14.78125 -10.640625 L 10.53125 -5.671875 L 13.546875 -3.09375 L 12.28125 -1.625 L 9.265625 -4.203125 L 4.546875 1.296875 L 8.296875 4.5 L 7.015625 6 L 1.15625 1 Z M 14 -14 "/></g></g></g><g fill="#0b5686" fill-opacity="1"><g transform="translate(249.093544, 123.760982)"><g><path d="M 3.875 4.8125 C 2.789062 3.5625 2.351562 2.269531 2.5625 0.9375 C 2.769531 -0.382812 3.519531 -1.664062 4.8125 -2.90625 L 6.890625 -1.484375 C 5.992188 -0.597656 5.382812 0.253906 5.0625 1.078125 C 4.738281 1.898438 4.890625 2.671875 5.515625 3.390625 C 5.984375 3.941406 6.488281 4.222656 7.03125 4.234375 C 7.570312 4.242188 8.125 4.003906 8.6875 3.515625 C 9.300781 2.984375 9.703125 2.414062 9.890625 1.8125 C 10.078125 1.207031 10.171875 0.410156 10.171875 -0.578125 L 10.21875 -5 C 10.21875 -5.894531 10.375 -6.675781 10.6875 -7.34375 C 11 -8.007812 11.523438 -8.664062 12.265625 -9.3125 C 13.359375 -10.257812 14.476562 -10.675781 15.625 -10.5625 C 16.769531 -10.457031 17.8125 -9.867188 18.75 -8.796875 C 19.769531 -7.609375 20.222656 -6.441406 20.109375 -5.296875 C 20.003906 -4.148438 19.351562 -2.945312 18.15625 -1.6875 L 16.125 -3.03125 C 16.945312 -3.851562 17.472656 -4.609375 17.703125 -5.296875 C 17.941406 -5.984375 17.753906 -6.6875 17.140625 -7.40625 C 16.679688 -7.9375 16.191406 -8.21875 15.671875 -8.25 C 15.148438 -8.289062 14.617188 -8.078125 14.078125 -7.609375 C 13.640625 -7.222656 13.332031 -6.828125 13.15625 -6.421875 C 12.976562 -6.015625 12.890625 -5.5 12.890625 -4.875 L 12.875 -0.4375 C 12.851562 0.707031 12.671875 1.765625 12.328125 2.734375 C 11.992188 3.710938 11.398438 4.570312 10.546875 5.3125 C 9.453125 6.257812 8.296875 6.675781 7.078125 6.5625 C 5.859375 6.457031 4.789062 5.875 3.875 4.8125 Z M 3.875 4.8125 "/></g></g></g><g fill="#ffffff" fill-opacity="1"><g transform="translate(232.242618, 186.207951)"><g><path d="M 0.78125 0 L 0.78125 -2.046875 C 1.789062 -2.691406 2.632812 -3.347656 3.3125 -4.015625 C 3.988281 -4.691406 4.5 -5.335938 4.84375 -5.953125 C 5.1875 -6.578125 5.359375 -7.117188 5.359375 -7.578125 C 5.359375 -8.304688 5.003906 -8.671875 4.296875 -8.671875 C 3.890625 -8.671875 3.539062 -8.539062 3.25 -8.28125 C 2.957031 -8.03125 2.75 -7.71875 2.625 -7.34375 L 0.4375 -8.5625 C 0.625 -9.101562 0.921875 -9.582031 1.328125 -10 C 1.742188 -10.414062 2.238281 -10.738281 2.8125 -10.96875 C 3.394531 -11.207031 4.019531 -11.328125 4.6875 -11.328125 C 5.46875 -11.328125 6.132812 -11.179688 6.6875 -10.890625 C 7.238281 -10.597656 7.660156 -10.195312 7.953125 -9.6875 C 8.253906 -9.175781 8.398438 -8.597656 8.390625 -7.953125 C 8.390625 -7.023438 8.101562 -6.09375 7.53125 -5.15625 C 6.96875 -4.226562 6.035156 -3.316406 4.734375 -2.421875 L 8.640625 -2.421875 L 8.640625 0 Z M 0.78125 0 "/></g></g></g><g fill="#ffffff" fill-opacity="1"><g transform="translate(242.686074, 186.207951)"><g><path d="M 3.859375 0.171875 C 3.242188 0.171875 2.644531 0.101562 2.0625 -0.03125 C 1.488281 -0.164062 1.046875 -0.332031 0.734375 -0.53125 L 1.40625 -3.140625 C 1.769531 -2.929688 2.164062 -2.769531 2.59375 -2.65625 C 3.019531 -2.539062 3.492188 -2.484375 4.015625 -2.484375 C 4.648438 -2.484375 5.078125 -2.582031 5.296875 -2.78125 C 5.523438 -2.988281 5.640625 -3.222656 5.640625 -3.484375 C 5.640625 -3.796875 5.492188 -4.03125 5.203125 -4.1875 C 4.921875 -4.351562 4.472656 -4.4375 3.859375 -4.4375 L 3.125 -4.4375 L 3.125 -6.8125 L 3.8125 -6.8125 C 4.238281 -6.8125 4.5625 -6.863281 4.78125 -6.96875 C 5.007812 -7.070312 5.164062 -7.203125 5.25 -7.359375 C 5.332031 -7.515625 5.375 -7.671875 5.375 -7.828125 C 5.375 -8.078125 5.289062 -8.28125 5.125 -8.4375 C 4.96875 -8.59375 4.707031 -8.671875 4.34375 -8.671875 C 3.894531 -8.671875 3.523438 -8.539062 3.234375 -8.28125 C 2.953125 -8.03125 2.75 -7.71875 2.625 -7.34375 L 0.4375 -8.5625 C 0.625 -9.101562 0.921875 -9.582031 1.328125 -10 C 1.742188 -10.414062 2.242188 -10.738281 2.828125 -10.96875 C 3.410156 -11.207031 4.035156 -11.328125 4.703125 -11.328125 C 5.429688 -11.328125 6.070312 -11.203125 6.625 -10.953125 C 7.175781 -10.710938 7.609375 -10.359375 7.921875 -9.890625 C 8.234375 -9.421875 8.390625 -8.859375 8.390625 -8.203125 C 8.390625 -7.710938 8.25 -7.238281 7.96875 -6.78125 C 7.695312 -6.332031 7.296875 -5.992188 6.765625 -5.765625 C 7.367188 -5.578125 7.832031 -5.28125 8.15625 -4.875 C 8.476562 -4.476562 8.640625 -3.960938 8.640625 -3.328125 C 8.640625 -2.679688 8.441406 -2.085938 8.046875 -1.546875 C 7.648438 -1.015625 7.09375 -0.59375 6.375 -0.28125 C 5.65625 0.0195312 4.816406 0.171875 3.859375 0.171875 Z M 3.859375 0.171875 "/></g></g></g><path fill="#ffffff" d="M 218.972656 161.320312 C 219.464844 161.320312 219.882812 161.148438 220.230469 160.800781 L 229.617188 151.414062 C 229.785156 151.25 229.910156 151.054688 230 150.839844 C 230.09375 150.621094 230.136719 150.394531 230.136719 150.160156 C 230.136719 149.921875 230.09375 149.695312 230 149.480469 C 229.910156 149.261719 229.785156 149.070312 229.617188 148.902344 L 219.214844 138.5 C 219.042969 138.339844 218.851562 138.21875 218.632812 138.132812 C 218.417969 138.046875 218.191406 138.003906 217.957031 138.003906 C 217.726562 138.003906 217.5 138.046875 217.285156 138.132812 C 217.066406 138.21875 216.871094 138.339844 216.703125 138.5 L 207.320312 147.886719 C 206.972656 148.234375 206.796875 148.652344 206.796875 149.144531 L 206.796875 158.808594 L 191 174.605469 L 176.960938 160.5625 C 177.519531 159.117188 177.867188 157.621094 178.007812 156.078125 C 178.148438 154.535156 178.074219 153 177.78125 151.480469 C 177.492188 149.957031 177 148.503906 176.304688 147.117188 C 175.605469 145.734375 174.734375 144.472656 173.683594 143.332031 C 172.632812 142.191406 171.445312 141.21875 170.125 140.410156 C 168.800781 139.601562 167.390625 138.992188 165.898438 138.578125 C 164.402344 138.167969 162.882812 137.964844 161.332031 137.980469 C 159.78125 137.992188 158.265625 138.21875 156.777344 138.65625 C 156.628906 138.699219 156.488281 138.761719 156.359375 138.84375 C 156.226562 138.921875 156.105469 139.015625 156 139.128906 C 155.894531 139.238281 155.800781 139.363281 155.726562 139.496094 C 155.652344 139.628906 155.59375 139.773438 155.558594 139.921875 C 155.519531 140.070312 155.5 140.222656 155.5 140.375 C 155.503906 140.53125 155.523438 140.683594 155.5625 140.832031 C 155.605469 140.980469 155.664062 141.121094 155.742188 141.253906 C 155.820312 141.386719 155.910156 141.507812 156.019531 141.617188 L 163.304688 148.902344 L 162.238281 155.332031 L 155.816406 156.398438 L 148.511719 149.128906 C 148.402344 149.023438 148.28125 148.929688 148.148438 148.851562 C 148.015625 148.773438 147.875 148.714844 147.726562 148.675781 C 147.578125 148.632812 147.425781 148.613281 147.269531 148.609375 C 147.117188 148.609375 146.964844 148.628906 146.816406 148.664062 C 146.667969 148.703125 146.523438 148.761719 146.390625 148.835938 C 146.257812 148.910156 146.132812 149 146.023438 149.105469 C 145.910156 149.214844 145.816406 149.332031 145.734375 149.464844 C 145.65625 149.597656 145.59375 149.734375 145.550781 149.882812 C 145.113281 151.371094 144.886719 152.890625 144.871094 154.4375 C 144.859375 155.988281 145.058594 157.511719 145.46875 159.003906 C 145.882812 160.5 146.492188 161.910156 147.300781 163.230469 C 148.109375 164.554688 149.082031 165.742188 150.222656 166.792969 C 151.363281 167.84375 152.625 168.714844 154.007812 169.414062 C 155.394531 170.109375 156.847656 170.601562 158.371094 170.890625 C 159.894531 171.179688 161.429688 171.257812 162.972656 171.117188 C 164.515625 170.976562 166.011719 170.625 167.457031 170.066406 L 172.65625 175.285156 L 168.773438 179.152344 C 168.609375 179.320312 168.480469 179.511719 168.386719 179.730469 C 168.296875 179.949219 168.253906 180.175781 168.253906 180.410156 C 168.253906 180.648438 168.296875 180.875 168.386719 181.09375 C 168.480469 181.308594 168.609375 181.503906 168.773438 181.667969 L 169.316406 182.207031 C 169.519531 182.410156 169.675781 182.644531 169.789062 182.914062 C 169.898438 183.179688 169.957031 183.460938 169.957031 183.75 C 169.957031 184.039062 169.902344 184.316406 169.789062 184.585938 C 169.679688 184.851562 169.523438 185.085938 169.316406 185.292969 C 169.113281 185.496094 168.878906 185.65625 168.609375 185.765625 C 168.34375 185.878906 168.066406 185.933594 167.773438 185.933594 C 167.484375 185.933594 167.207031 185.878906 166.941406 185.769531 C 166.671875 185.660156 166.4375 185.5 166.230469 185.296875 L 165.6875 184.753906 C 165.339844 184.40625 164.921875 184.230469 164.429688 184.230469 C 163.9375 184.230469 163.519531 184.402344 163.171875 184.75 L 149.054688 198.875 C 148.390625 199.539062 147.800781 200.257812 147.28125 201.039062 C 146.761719 201.816406 146.320312 202.640625 145.960938 203.507812 C 145.605469 204.371094 145.335938 205.265625 145.152344 206.183594 C 144.96875 207.101562 144.878906 208.03125 144.878906 208.96875 C 144.878906 209.90625 144.96875 210.832031 145.152344 211.75 C 145.335938 212.671875 145.605469 213.5625 145.964844 214.429688 C 146.324219 215.292969 146.765625 216.117188 147.285156 216.894531 C 147.804688 217.675781 148.398438 218.394531 149.058594 219.058594 C 149.722656 219.71875 150.441406 220.3125 151.222656 220.832031 C 152 221.355469 152.824219 221.792969 153.6875 222.152344 C 154.554688 222.511719 155.449219 222.78125 156.367188 222.964844 C 157.285156 223.148438 158.214844 223.238281 159.152344 223.238281 C 160.085938 223.238281 161.015625 223.148438 161.933594 222.964844 C 162.855469 222.785156 163.746094 222.511719 164.613281 222.15625 C 165.476562 221.796875 166.300781 221.359375 167.078125 220.835938 C 167.859375 220.316406 168.582031 219.726562 169.242188 219.0625 L 183.363281 204.941406 C 183.53125 204.777344 183.660156 204.582031 183.75 204.367188 C 183.84375 204.148438 183.886719 203.921875 183.886719 203.683594 C 183.886719 203.449219 183.84375 203.222656 183.75 203.003906 C 183.660156 202.785156 183.53125 202.59375 183.363281 202.425781 L 182.824219 201.886719 C 182.621094 201.683594 182.460938 201.445312 182.351562 201.179688 C 182.242188 200.910156 182.183594 200.632812 182.183594 200.34375 C 182.183594 200.054688 182.242188 199.777344 182.351562 199.507812 C 182.460938 199.242188 182.621094 199.003906 182.824219 198.800781 C 183.03125 198.601562 183.269531 198.445312 183.535156 198.339844 C 183.804688 198.230469 184.082031 198.179688 184.367188 198.179688 C 184.65625 198.179688 184.933594 198.230469 185.199219 198.339844 C 185.46875 198.445312 185.703125 198.601562 185.914062 198.800781 L 186.457031 199.339844 C 186.621094 199.507812 186.8125 199.632812 187.03125 199.722656 C 187.25 199.8125 187.476562 199.859375 187.710938 199.859375 C 187.945312 199.859375 188.171875 199.8125 188.386719 199.722656 C 188.605469 199.632812 188.796875 199.507812 188.964844 199.339844 L 192.832031 195.460938 L 198.035156 200.664062 C 197.476562 202.109375 197.128906 203.605469 196.988281 205.148438 C 196.851562 206.691406 196.925781 208.222656 197.21875 209.746094 C 197.507812 211.269531 198 212.722656 198.699219 214.105469 C 199.394531 215.488281 200.265625 216.75 201.316406 217.890625 C 202.367188 219.03125 203.554688 220.003906 204.875 220.8125 C 206.199219 221.617188 207.605469 222.230469 209.097656 222.640625 C 210.59375 223.054688 212.113281 223.257812 213.664062 223.246094 C 215.210938 223.230469 216.730469 223.007812 218.214844 222.570312 C 218.363281 222.527344 218.503906 222.464844 218.636719 222.386719 C 218.769531 222.304688 218.886719 222.210938 218.992188 222.101562 C 219.101562 221.988281 219.191406 221.867188 219.265625 221.730469 C 219.34375 221.597656 219.398438 221.457031 219.4375 221.304688 C 219.476562 221.15625 219.492188 221.003906 219.492188 220.851562 C 219.492188 220.699219 219.46875 220.546875 219.429688 220.398438 C 219.390625 220.25 219.328125 220.109375 219.253906 219.976562 C 219.175781 219.839844 219.082031 219.71875 218.972656 219.609375 L 211.691406 212.324219 L 212.757812 205.894531 L 219.179688 204.828125 L 226.464844 212.113281 C 226.574219 212.21875 226.695312 212.3125 226.828125 212.390625 C 226.960938 212.46875 227.101562 212.527344 227.25 212.566406 C 227.398438 212.609375 227.550781 212.628906 227.703125 212.632812 C 227.859375 212.632812 228.011719 212.613281 228.160156 212.578125 C 228.308594 212.539062 228.449219 212.480469 228.585938 212.40625 C 228.71875 212.332031 228.84375 212.242188 228.953125 212.136719 C 229.0625 212.027344 229.160156 211.910156 229.238281 211.777344 C 229.320312 211.644531 229.382812 211.507812 229.425781 211.359375 C 229.863281 209.871094 230.089844 208.351562 230.105469 206.804688 C 230.117188 205.253906 229.917969 203.730469 229.503906 202.238281 C 229.09375 200.742188 228.484375 199.332031 227.675781 198.011719 C 226.867188 196.6875 225.894531 195.5 224.753906 194.449219 C 223.613281 193.398438 222.351562 192.527344 220.964844 191.828125 C 219.582031 191.132812 218.128906 190.640625 216.605469 190.351562 C 215.082031 190.0625 213.546875 189.984375 212.003906 190.125 C 210.460938 190.265625 208.964844 190.617188 207.519531 191.175781 L 193.480469 177.132812 L 209.277344 161.332031 Z M 187.644531 195.636719 C 187.089844 195.265625 186.488281 194.996094 185.839844 194.828125 C 185.191406 194.664062 184.53125 194.609375 183.863281 194.667969 C 183.199219 194.726562 182.558594 194.894531 181.949219 195.175781 C 181.339844 195.453125 180.796875 195.824219 180.3125 196.289062 C 179.839844 196.765625 179.457031 197.308594 179.175781 197.917969 C 178.890625 198.527344 178.71875 199.167969 178.660156 199.839844 C 178.597656 200.507812 178.65625 201.167969 178.828125 201.820312 C 179 202.46875 179.277344 203.070312 179.660156 203.625 L 166.730469 216.550781 C 166.285156 216.996094 165.808594 217.398438 165.292969 217.753906 C 164.777344 218.113281 164.234375 218.425781 163.664062 218.6875 C 163.09375 218.953125 162.503906 219.164062 161.894531 219.324219 C 161.289062 219.484375 160.671875 219.589844 160.046875 219.640625 C 159.421875 219.691406 158.792969 219.6875 158.167969 219.628906 C 157.542969 219.570312 156.929688 219.457031 156.324219 219.289062 C 155.71875 219.125 155.132812 218.90625 154.566406 218.632812 C 153.996094 218.363281 153.457031 218.046875 152.949219 217.683594 L 168.019531 202.609375 C 168.1875 202.441406 168.320312 202.25 168.414062 202.03125 C 168.511719 201.8125 168.558594 201.585938 168.558594 201.347656 C 168.5625 201.109375 168.519531 200.878906 168.429688 200.65625 C 168.335938 200.4375 168.207031 200.242188 168.039062 200.074219 C 167.871094 199.90625 167.675781 199.777344 167.457031 199.6875 C 167.234375 199.597656 167.007812 199.550781 166.769531 199.554688 C 166.53125 199.554688 166.300781 199.605469 166.082031 199.699219 C 165.863281 199.792969 165.671875 199.925781 165.507812 200.097656 L 150.433594 215.175781 C 150.066406 214.664062 149.746094 214.125 149.472656 213.558594 C 149.199219 212.992188 148.980469 212.40625 148.8125 211.796875 C 148.644531 211.191406 148.527344 210.578125 148.46875 209.949219 C 148.410156 209.324219 148.40625 208.699219 148.457031 208.070312 C 148.507812 207.445312 148.617188 206.828125 148.777344 206.21875 C 148.9375 205.609375 149.148438 205.023438 149.414062 204.453125 C 149.679688 203.882812 149.992188 203.339844 150.355469 202.824219 C 150.714844 202.308594 151.121094 201.828125 151.566406 201.386719 L 164.492188 188.453125 C 165.046875 188.839844 165.648438 189.121094 166.296875 189.292969 C 166.949219 189.46875 167.609375 189.527344 168.28125 189.46875 C 168.953125 189.410156 169.59375 189.238281 170.203125 188.953125 C 170.8125 188.667969 171.355469 188.285156 171.832031 187.8125 C 172.308594 187.335938 172.691406 186.792969 172.976562 186.179688 C 173.257812 185.570312 173.433594 184.929688 173.492188 184.257812 C 173.550781 183.589844 173.492188 182.925781 173.320312 182.277344 C 173.144531 181.625 172.867188 181.023438 172.480469 180.472656 L 175.167969 177.78125 L 186.558594 189.171875 L 190.347656 192.949219 Z M 207.914062 194.871094 C 208.417969 194.628906 208.9375 194.421875 209.46875 194.246094 C 210 194.070312 210.542969 193.929688 211.089844 193.824219 C 211.640625 193.71875 212.195312 193.648438 212.753906 193.617188 C 213.3125 193.582031 213.871094 193.582031 214.429688 193.621094 C 214.988281 193.660156 215.542969 193.734375 216.089844 193.839844 C 216.640625 193.949219 217.179688 194.09375 217.710938 194.273438 C 218.242188 194.453125 218.757812 194.664062 219.261719 194.910156 C 219.765625 195.152344 220.25 195.429688 220.71875 195.738281 C 221.183594 196.046875 221.632812 196.382812 222.054688 196.746094 C 222.480469 197.113281 222.878906 197.503906 223.253906 197.917969 C 223.628906 198.335938 223.972656 198.773438 224.289062 199.234375 C 224.609375 199.695312 224.894531 200.175781 225.152344 200.675781 C 225.40625 201.171875 225.628906 201.683594 225.820312 202.210938 C 226.007812 202.738281 226.164062 203.273438 226.285156 203.820312 C 226.40625 204.367188 226.492188 204.917969 226.542969 205.476562 C 226.589844 206.035156 226.605469 206.59375 226.582031 207.152344 L 221.078125 201.652344 C 220.644531 201.222656 220.128906 201.054688 219.527344 201.15625 L 210.953125 202.601562 C 210.578125 202.664062 210.253906 202.828125 209.988281 203.097656 C 209.71875 203.367188 209.554688 203.6875 209.492188 204.0625 L 208.046875 212.636719 C 207.945312 213.238281 208.109375 213.753906 208.542969 214.1875 L 214.039062 219.691406 C 212.222656 219.75 210.46875 219.445312 208.777344 218.78125 C 207.085938 218.121094 205.59375 217.152344 204.296875 215.878906 C 203.824219 215.402344 203.390625 214.894531 202.996094 214.351562 C 202.601562 213.8125 202.25 213.242188 201.941406 212.644531 C 201.636719 212.050781 201.375 211.433594 201.164062 210.800781 C 200.949219 210.164062 200.785156 209.515625 200.675781 208.855469 C 200.5625 208.195312 200.5 207.527344 200.488281 206.859375 C 200.480469 206.1875 200.519531 205.519531 200.613281 204.855469 C 200.703125 204.191406 200.847656 203.539062 201.039062 202.898438 C 201.230469 202.257812 201.472656 201.632812 201.761719 201.027344 C 201.921875 200.6875 201.96875 200.332031 201.902344 199.960938 C 201.839844 199.59375 201.671875 199.273438 201.40625 199.007812 L 169.117188 166.707031 C 168.851562 166.4375 168.53125 166.273438 168.160156 166.207031 C 167.789062 166.140625 167.433594 166.1875 167.09375 166.351562 C 166.589844 166.59375 166.070312 166.800781 165.539062 166.976562 C 165.007812 167.148438 164.46875 167.289062 163.917969 167.394531 C 163.367188 167.5 162.8125 167.570312 162.253906 167.605469 C 161.695312 167.640625 161.136719 167.636719 160.582031 167.601562 C 160.023438 167.5625 159.46875 167.488281 158.917969 167.378906 C 158.371094 167.269531 157.832031 167.125 157.300781 166.949219 C 156.769531 166.769531 156.253906 166.558594 155.75 166.3125 C 155.246094 166.066406 154.761719 165.792969 154.292969 165.484375 C 153.824219 165.175781 153.378906 164.839844 152.957031 164.476562 C 152.53125 164.109375 152.132812 163.71875 151.757812 163.304688 C 151.382812 162.886719 151.039062 162.449219 150.71875 161.988281 C 150.402344 161.527344 150.117188 161.050781 149.859375 160.550781 C 149.605469 160.054688 149.382812 159.542969 149.191406 159.015625 C 149 158.488281 148.84375 157.953125 148.722656 157.40625 C 148.601562 156.859375 148.515625 156.308594 148.46875 155.75 C 148.417969 155.191406 148.402344 154.636719 148.425781 154.074219 L 153.929688 159.574219 C 154.363281 160.007812 154.878906 160.171875 155.480469 160.074219 L 164.054688 158.625 C 164.429688 158.5625 164.75 158.398438 165.019531 158.128906 C 165.285156 157.863281 165.449219 157.539062 165.511719 157.167969 L 166.960938 148.589844 C 167.0625 147.988281 166.898438 147.472656 166.464844 147.042969 L 160.96875 141.535156 C 162.785156 141.484375 164.539062 141.789062 166.226562 142.453125 C 167.917969 143.117188 169.410156 144.085938 170.707031 145.359375 C 171.179688 145.832031 171.613281 146.339844 172.007812 146.882812 C 172.40625 147.425781 172.753906 147.992188 173.0625 148.589844 C 173.371094 149.183594 173.628906 149.800781 173.84375 150.433594 C 174.054688 151.070312 174.21875 151.71875 174.332031 152.378906 C 174.445312 153.039062 174.507812 153.707031 174.515625 154.375 C 174.527344 155.046875 174.488281 155.714844 174.394531 156.378906 C 174.304688 157.042969 174.160156 157.695312 173.96875 158.335938 C 173.777344 158.980469 173.535156 159.601562 173.246094 160.207031 C 173.085938 160.546875 173.039062 160.902344 173.105469 161.273438 C 173.167969 161.644531 173.335938 161.960938 173.601562 162.226562 L 205.898438 194.523438 C 206.164062 194.789062 206.480469 194.953125 206.851562 195.015625 C 207.222656 195.078125 207.574219 195.03125 207.914062 194.871094 Z M 210.351562 149.878906 L 217.957031 142.269531 L 225.847656 150.160156 L 218.238281 157.765625 L 210.351562 157.765625 Z M 210.351562 149.878906 " fill-opacity="1" fill-rule="nonzero"/><g fill="#0b5686" fill-opacity="1"><g transform="translate(123.011762, 273.884345)"><g><path d="M 8.078125 -3.84375 L 11.34375 -17.9375 L 13.6875 -16.5 L 11.109375 -6.0625 L 19.1875 -13.140625 L 21.546875 -11.6875 L 10.484375 -2.359375 L 6.578125 4.03125 L 4.171875 2.546875 Z M 8.078125 -3.84375 "/></g></g></g><g fill="#0b5686" fill-opacity="1"><g transform="translate(136.793435, 282.082175)"><g><path d="M 6.421875 2.984375 C 4.503906 2.171875 3.359375 1.046875 2.984375 -0.390625 C 2.617188 -1.828125 2.875 -3.578125 3.75 -5.640625 L 6.875 -13.046875 C 7.738281 -15.066406 8.8125 -16.421875 10.09375 -17.109375 C 11.375 -17.804688 12.960938 -17.75 14.859375 -16.9375 C 16.753906 -16.144531 17.890625 -15.046875 18.265625 -13.640625 C 18.648438 -12.234375 18.414062 -10.523438 17.5625 -8.515625 L 14.421875 -1.078125 C 13.566406 0.941406 12.488281 2.320312 11.1875 3.0625 C 9.894531 3.800781 8.304688 3.773438 6.421875 2.984375 Z M 7.328125 0.84375 C 8.335938 1.269531 9.144531 1.253906 9.75 0.796875 C 10.363281 0.347656 10.925781 -0.476562 11.4375 -1.6875 L 15.0625 -10.25 C 15.5625 -11.4375 15.753906 -12.382812 15.640625 -13.09375 C 15.523438 -13.8125 14.960938 -14.382812 13.953125 -14.8125 C 12.921875 -15.257812 12.109375 -15.269531 11.515625 -14.84375 C 10.921875 -14.425781 10.375 -13.625 9.875 -12.4375 L 6.25 -3.875 C 5.738281 -2.664062 5.53125 -1.6875 5.625 -0.9375 C 5.726562 -0.195312 6.296875 0.394531 7.328125 0.84375 Z M 7.328125 0.84375 "/></g></g></g><g fill="#0b5686" fill-opacity="1"><g transform="translate(152.783372, 288.400892)"><g/></g></g><g fill="#0b5686" fill-opacity="1"><g transform="translate(161.479328, 290.982248)"><g><path d="M 5.21875 -20.625 L 9.4375 -19.90625 C 11.550781 -19.539062 13.023438 -18.835938 13.859375 -17.796875 C 14.703125 -16.753906 14.957031 -15.253906 14.625 -13.296875 C 14.164062 -10.609375 13.019531 -9.128906 11.1875 -8.859375 L 12.359375 2.125 L 9.546875 1.640625 L 8.5 -8.640625 L 6.234375 -9.03125 L 4.546875 0.78125 L 1.625 0.28125 Z M 7.703125 -10.9375 C 8.953125 -10.71875 9.890625 -10.804688 10.515625 -11.203125 C 11.140625 -11.609375 11.566406 -12.46875 11.796875 -13.78125 C 11.941406 -14.632812 11.960938 -15.328125 11.859375 -15.859375 C 11.753906 -16.390625 11.476562 -16.804688 11.03125 -17.109375 C 10.59375 -17.421875 9.941406 -17.65625 9.078125 -17.8125 L 7.78125 -18.03125 L 6.59375 -11.125 Z M 7.703125 -10.9375 "/></g></g></g><g fill="#0b5686" fill-opacity="1"><g transform="translate(178.179006, 293.52094)"><g><path d="M 2.375 -21.140625 L 10.59375 -20.875 L 10.515625 -18.671875 L 5.25 -18.84375 L 5.015625 -11.84375 L 9.28125 -11.703125 L 9.203125 -9.609375 L 4.9375 -9.75 L 4.6875 -1.96875 L 10 -1.796875 L 9.921875 0.328125 L 1.65625 0.0625 Z M 2.375 -21.140625 "/></g></g></g><g fill="#0b5686" fill-opacity="1"><g transform="translate(192.089755, 293.836017)"><g><path d="M -0.4375 -21.265625 L 4.796875 -21.78125 C 6.617188 -21.96875 7.992188 -21.601562 8.921875 -20.6875 C 9.847656 -19.769531 10.40625 -18.359375 10.59375 -16.453125 C 10.757812 -14.734375 10.445312 -13.351562 9.65625 -12.3125 C 8.863281 -11.269531 7.625 -10.664062 5.9375 -10.5 L 3.625 -10.28125 L 4.59375 -0.453125 L 1.640625 -0.15625 Z M 4.765625 -12.515625 C 5.640625 -12.609375 6.300781 -12.769531 6.75 -13 C 7.207031 -13.238281 7.515625 -13.601562 7.671875 -14.09375 C 7.835938 -14.59375 7.878906 -15.28125 7.796875 -16.15625 C 7.691406 -17.238281 7.535156 -18.023438 7.328125 -18.515625 C 7.117188 -19.003906 6.773438 -19.328125 6.296875 -19.484375 C 5.816406 -19.648438 5.082031 -19.6875 4.09375 -19.59375 L 2.71875 -19.453125 L 3.421875 -12.390625 Z M 4.765625 -12.515625 "/></g></g></g><g fill="#0b5686" fill-opacity="1"><g transform="translate(207.92926, 292.046894)"><g><path d="M -0.203125 -21.796875 L 2.578125 -22.484375 L 12.03125 -2.953125 L 9.296875 -2.28125 L 7.078125 -7.234375 L 2.890625 -6.21875 L 3.171875 -0.78125 L 0.484375 -0.125 Z M 6.203125 -9.203125 L 2.1875 -18.0625 L 2.765625 -8.359375 Z M 6.203125 -9.203125 "/></g></g></g><g fill="#0b5686" fill-opacity="1"><g transform="translate(223.713115, 287.939563)"><g><path d="M -6.5 -20.265625 L -2.546875 -21.875 C -0.566406 -22.6875 1.050781 -22.875 2.3125 -22.4375 C 3.582031 -22 4.597656 -20.859375 5.359375 -19.015625 C 6.378906 -16.492188 6.195312 -14.632812 4.8125 -13.4375 L 11.609375 -4.75 L 8.96875 -3.671875 L 2.625 -11.828125 L 0.5 -10.96875 L 4.265625 -1.75 L 1.53125 -0.625 Z M 0.734375 -13.34375 C 1.910156 -13.820312 2.660156 -14.398438 2.984375 -15.078125 C 3.304688 -15.753906 3.21875 -16.707031 2.71875 -17.9375 C 2.382812 -18.75 2.03125 -19.347656 1.65625 -19.734375 C 1.289062 -20.117188 0.832031 -20.328125 0.28125 -20.359375 C -0.257812 -20.398438 -0.9375 -20.25 -1.75 -19.90625 L -2.96875 -19.421875 L -0.3125 -12.921875 Z M 0.734375 -13.34375 "/></g></g></g><g fill="#0b5686" fill-opacity="1"><g transform="translate(239.428476, 281.246553)"><g><path d="M 6.1875 -3.453125 C 4.40625 -2.367188 2.820312 -2.097656 1.4375 -2.640625 C 0.0625 -3.191406 -1.203125 -4.425781 -2.359375 -6.34375 L -6.5 -13.21875 C -7.625 -15.101562 -8.09375 -16.765625 -7.90625 -18.203125 C -7.71875 -19.648438 -6.738281 -20.910156 -4.96875 -21.984375 C -3.207031 -23.035156 -1.644531 -23.300781 -0.28125 -22.78125 C 1.070312 -22.269531 2.3125 -21.078125 3.4375 -19.203125 L 7.59375 -12.296875 C 8.726562 -10.421875 9.210938 -8.738281 9.046875 -7.25 C 8.890625 -5.769531 7.9375 -4.503906 6.1875 -3.453125 Z M 4.984375 -5.453125 C 5.921875 -6.015625 6.390625 -6.671875 6.390625 -7.421875 C 6.390625 -8.171875 6.050781 -9.109375 5.375 -10.234375 L 0.578125 -18.203125 C -0.0859375 -19.304688 -0.742188 -20.023438 -1.390625 -20.359375 C -2.046875 -20.691406 -2.84375 -20.578125 -3.78125 -20.015625 C -4.738281 -19.429688 -5.222656 -18.773438 -5.234375 -18.046875 C -5.242188 -17.316406 -4.914062 -16.398438 -4.25 -15.296875 L 0.546875 -7.328125 C 1.222656 -6.203125 1.890625 -5.460938 2.546875 -5.109375 C 3.210938 -4.753906 4.023438 -4.867188 4.984375 -5.453125 Z M 4.984375 -5.453125 "/></g></g></g><g fill="#ffffff" fill-opacity="1"><g transform="translate(120.874216, 186.207951)"><g><path d="M 0.78125 0 L 0.78125 -2.046875 C 1.789062 -2.691406 2.632812 -3.347656 3.3125 -4.015625 C 3.988281 -4.691406 4.5 -5.335938 4.84375 -5.953125 C 5.1875 -6.578125 5.359375 -7.117188 5.359375 -7.578125 C 5.359375 -8.304688 5.003906 -8.671875 4.296875 -8.671875 C 3.890625 -8.671875 3.539062 -8.539062 3.25 -8.28125 C 2.957031 -8.03125 2.75 -7.71875 2.625 -7.34375 L 0.4375 -8.5625 C 0.625 -9.101562 0.921875 -9.582031 1.328125 -10 C 1.742188 -10.414062 2.238281 -10.738281 2.8125 -10.96875 C 3.394531 -11.207031 4.019531 -11.328125 4.6875 -11.328125 C 5.46875 -11.328125 6.132812 -11.179688 6.6875 -10.890625 C 7.238281 -10.597656 7.660156 -10.195312 7.953125 -9.6875 C 8.253906 -9.175781 8.398438 -8.597656 8.390625 -7.953125 C 8.390625 -7.023438 8.101562 -6.09375 7.53125 -5.15625 C 6.96875 -4.226562 6.035156 -3.316406 4.734375 -2.421875 L 8.640625 -2.421875 L 8.640625 0 Z M 0.78125 0 "/></g></g></g><g fill="#ffffff" fill-opacity="1"><g transform="translate(131.317673, 186.207951)"><g><path d="M 4.8125 0.171875 C 3.351562 0.191406 2.25 -0.242188 1.5 -1.140625 C 0.75 -2.046875 0.375 -3.457031 0.375 -5.375 C 0.375 -6.550781 0.550781 -7.582031 0.90625 -8.46875 C 1.269531 -9.363281 1.789062 -10.0625 2.46875 -10.5625 C 3.144531 -11.070312 3.960938 -11.328125 4.921875 -11.328125 C 6.242188 -11.328125 7.265625 -10.863281 7.984375 -9.9375 C 8.703125 -9.019531 9.0625 -7.644531 9.0625 -5.8125 C 9.0625 -4.6875 8.894531 -3.675781 8.5625 -2.78125 C 8.238281 -1.882812 7.757812 -1.171875 7.125 -0.640625 C 6.5 -0.117188 5.726562 0.148438 4.8125 0.171875 Z M 4.71875 -2.453125 C 5.1875 -2.453125 5.519531 -2.738281 5.71875 -3.3125 C 5.914062 -3.894531 6.015625 -4.710938 6.015625 -5.765625 C 6.015625 -6.742188 5.921875 -7.476562 5.734375 -7.96875 C 5.546875 -8.46875 5.238281 -8.71875 4.8125 -8.71875 C 4.34375 -8.71875 4 -8.429688 3.78125 -7.859375 C 3.5625 -7.285156 3.453125 -6.484375 3.453125 -5.453125 C 3.453125 -4.441406 3.539062 -3.6875 3.71875 -3.1875 C 3.90625 -2.695312 4.238281 -2.453125 4.71875 -2.453125 Z M 4.71875 -2.453125 "/></g></g></g></svg>